<?xml version="1.0" standalone="no"?><!DOCTYPE svg PUBLIC "-//W3C//DTD SVG 1.1//EN" "http://www.w3.org/Graphics/SVG/1.1/DTD/svg11.dtd"><svg t="1709902567619" class="icon" viewBox="0 0 1024 1024" version="1.1" xmlns="http://www.w3.org/2000/svg" p-id="2606" data-darkreader-inline-fill="" width="200" height="200" xmlns:xlink="http://www.w3.org/1999/xlink"><path d="M128 106.666667a21.333333 21.333333 0 0 1 21.333333-21.333334h106.666667a21.333333 21.333333 0 0 1 21.333333 21.333334v768h64V106.666667a21.333333 21.333333 0 0 1 21.333334-21.333334h106.666666a21.333333 21.333333 0 0 1 21.333334 21.333334v768h64V106.666667a21.333333 21.333333 0 0 1 21.333333-21.333334h106.666667a21.333333 21.333333 0 0 1 21.333333 21.333334v768h64V106.666667a21.333333 21.333333 0 0 1 21.333333-21.333334h106.666667a21.333333 21.333333 0 0 1 21.333333 21.333334v768h64v42.666666h-85.333333a21.333333 21.333333 0 0 1-21.333333-21.333333V128h-64v768a21.333333 21.333333 0 0 1-21.333334 21.333333h-106.666666a21.333333 21.333333 0 0 1-21.333334-21.333333V128h-64v768a21.333333 21.333333 0 0 1-21.333333 21.333333h-106.666667a21.333333 21.333333 0 0 1-21.333333-21.333333V128h-64v768a21.333333 21.333333 0 0 1-21.333333 21.333333h-106.666667a21.333333 21.333333 0 0 1-21.333333-21.333333V128H170.666667v768a21.333333 21.333333 0 0 1-21.333334 21.333333H42.666667v-42.666666h85.333333V106.666667z" fill="#33a2ff" p-id="2607" data-darkreader-inline-fill="" style="--darkreader-inline-fill: #005ead;"></path></svg>